<svg xmlns="http://www.w3.org/2000/svg" data-name="Layer 1" viewBox="0 0 100 125" x="0px" y="0px"><title>icons_animals_8</title><path d="M33.91,29.73c-.07.38-7.45,38.4-8.34,41.73l-.55,2,1.92-.86A41.6,41.6,0,0,0,32,70l6.25,29.63,1.13-.51c.3-.14,3-1.51,6.3-8.11,3-6.08-3.93-21.13-5.79-24.92a33.7,33.7,0,0,0,3.38-2.38v.49l6.93,8.18A11.28,11.28,0,0,0,46,74l1.08,1.68c6.27-4,14.09,1.46,14.17,1.51l1.17-1.63a19.52,19.52,0,0,0-9.79-3.38l-7.4-8.73V62a48.4,48.4,0,0,0,4-4l-.15,1.88,5.62,5.56a9.13,9.13,0,0,0-1,.57l1.08,1.68c4.72-3,10.64,1.12,10.7,1.16l1.17-1.63c-.24-.17-4.87-3.42-9.76-2.49l-5.7-5.63.31-3.8a57.75,57.75,0,0,0,6.44-10.62c6.57-13.94.07-19.33-3.81-22.55a18.06,18.06,0,0,1-1.77-1.59,2.64,2.64,0,0,1-.84-2.07,3.34,3.34,0,0,1,1.33-2l23-3-.05-2c-.58-.06-12.82-1.91-21.36-3.21a5,5,0,0,0-1.57-2.72c-1.45-1.28-3.64-1.74-6.52-1.34-4.58.63-15.3,2.11-19-1.26L25.12,1.06l.42,2.76c.4,2.64,2.39,7.8,11.5,9.81L35.19,26.51A13.85,13.85,0,0,0,33.91,29.73Zm2,.42c0-.05,1.32-5.27,4.56-5.27l.36,0a11.31,11.31,0,0,1,6,2.22l.11.08A8.78,8.78,0,0,1,50,35.3C49.22,42.88,45.43,61,28,69.93,29.82,61.33,35.6,31.53,35.86,30.16Zm8,59.93a22.67,22.67,0,0,1-4.26,6.33L33.76,68.78a39.15,39.15,0,0,0,3.74-3l.16.31C40.21,71.1,46.3,85.15,43.86,90.09Zm8.8-75.64L50.89,13.2l2.92-3,14.55,2.21ZM28.3,5.88c4.48,1.8,11.59,1.2,18.22.28,2.22-.3,3.91,0,4.9.84a3,3,0,0,1,1,1.76l-3.48,3.59C34.87,13.13,30,9.1,28.3,5.88Zm17.27,8.58c1.1,0,2.27,0,3.49-.11l1.72,1.22a4.79,4.79,0,0,0-1.32,2.58,4.52,4.52,0,0,0,1.34,3.69,19.2,19.2,0,0,0,2,1.79c3.88,3.22,9.18,7.63,3.28,20.17C50.37,55.89,42.5,61.93,39.41,64c9.45-9.75,12-22.36,12.6-28.44a10.79,10.79,0,0,0-4-9.9,13.24,13.24,0,0,0-7-2.69,4.91,4.91,0,0,0-3.4.81L39,14A43.45,43.45,0,0,0,45.57,14.46Z"/></svg>