<svg xmlns="http://www.w3.org/2000/svg" data-name="Layer 1" viewBox="0 0 100 125" x="0px" y="0px"><title>icons_animals_8</title><path d="M97.54,23.39c-.58.1-7.7,1.34-16.14,3.49a23.4,23.4,0,0,1,9.83-12.21,1,1,0,0,0,.43-1.13,1,1,0,0,0-1-.72C71.6,13.23,50.91,32.95,46,38c-1.37-3.21-5-10.78-9.53-13.1a9.23,9.23,0,0,0-10.32,1.32L5.7,23.27a1,1,0,0,0-.51,1.92l18.17,7.14c.42,2.52,1.78,9.34,4.5,12.35,0,2.64.81,16.44,19.32,24.59-1.33,1.78-3.41,5.4-1.12,8.49a1,1,0,1,0,1.61-1.19c-1.67-2.25.47-5.32,1.43-6.5l.28.12a8.42,8.42,0,0,1,2.35,1.44l-.78,1c-.24.27-2.37,2.7-1.83,5.1a4,4,0,0,0,2.65,2.79,1,1,0,1,0,.77-1.85c-1.27-.53-1.41-1.16-1.46-1.37-.27-1.18.92-2.84,1.39-3.36l.73-.89a53.48,53.48,0,0,1,3.51,4.35c3.49,4.64,7.4,9.83,13.73,9.83a12.59,12.59,0,0,0,2.21-.2l11.59-2.07A1,1,0,0,0,84.51,83c-.15-.08-15.21-7.94-19.27-18.17a54.46,54.46,0,0,0-3.57-7.29A22.36,22.36,0,0,0,68.51,54l.05,0A37.67,37.67,0,0,0,75.89,47l0-.06a18.43,18.43,0,0,0,2.14-3.36C79.3,41,83.81,36.8,88.26,33.07h0c5-4.2,9.92-7.8,10-7.86a1,1,0,0,0-.76-1.79ZM60.58,34a14.06,14.06,0,0,0,.15-1.58c7.54-3.88,16.21-7.52,19.33-7.71a16.88,16.88,0,0,0-.89,2.65s0,.06,0,.09A104.36,104.36,0,0,0,60.58,34ZM81,22.81c-4.25-.42-15.18,4.8-20.27,7.39-.06-.89-.16-1.66-.24-2.16,7.6-5.71,17.31-11.52,26.72-12.92A25.28,25.28,0,0,0,81,22.81Zm.17,60.63-2.22.4c-4.14-.64-10.43-8.42-12.53-11.39a1,1,0,0,0-1.63,1.15c.27.38,5.48,7.73,10.57,10.88l-2.82.5C65.36,83,61.63,71.58,61.6,71.47a1,1,0,0,0-1.91.61c.13.42,2.77,8.54,8.19,12.73-4-1.18-6.81-5-9.58-8.65a52.21,52.21,0,0,0-3.83-4.72l4-4.88a1,1,0,1,0-1.55-1.26L53,70.07a10.32,10.32,0,0,0-2.9-1.76C32.67,61.57,30.19,50.23,29.89,46c.09,0,.18.07.28.09h2.58a1,1,0,0,0,0-2H30.44a1.94,1.94,0,0,1-.82-.46l-.05,0c-2-1.81-3.66-7.82-4.32-12.16a1,1,0,0,0-.62-.78L13.9,26.46l12.4,1.77a1,1,0,0,0,.86-.29,7.34,7.34,0,0,1,8.35-1.3c5,2.55,9.12,13.35,9.16,13.46a1,1,0,0,0,1.67.33,122,122,0,0,1,12.29-11c.19,1.83.24,4.37-.49,5.89q-.6.35-1.15.72c-11,7.23-18.53,6.73-18.64,6.73a1,1,0,0,0-1.08.91,1,1,0,0,0,.91,1.08c.34,0,8.28.63,19.92-7a36,36,0,0,1,4.75-2.57,14.44,14.44,0,0,1-2.26,6.49l0,0v0A11.09,11.09,0,0,1,56,45.5l-.13.06a10.45,10.45,0,0,1-3.14.89,1,1,0,0,0-.63,1.71A56.61,56.61,0,0,1,63.39,65.62C66.72,74,76.51,80.67,81.14,83.44ZM54.78,48a14.49,14.49,0,0,0,1.73-.63c2.63.58,9,2.55,10.3,5.35a17.31,17.31,0,0,1-6.24,3A59.11,59.11,0,0,0,54.78,48Zm13.65,3.54C66.78,48.64,62,46.85,59,46a13,13,0,0,0,2.86-2.8c2,0,9.94,1,12,3.15A35.2,35.2,0,0,1,68.43,51.59Zm7.83-8.82a14.73,14.73,0,0,1-1.16,2c-2.92-2.63-10.08-3.34-12-3.49a15.24,15.24,0,0,0,.79-1.85,130,130,0,0,0,18.29-3.62C79.43,38.38,77.15,40.9,76.26,42.77ZM87,31.5c-3.38,2.74-16.25,5-22.51,5.81a21.43,21.43,0,0,0,.42-3.08c9.38-3.89,22.2-6.75,28.74-8.07C91.83,27.58,89.44,29.46,87,31.5Z"/><circle cx="32.14" cy="31.2" r="1.62"/></svg>