<svg xmlns="http://www.w3.org/2000/svg" data-name="Layer 1" viewBox="0 0 100 125" x="0px" y="0px"><title>icons_animals_8</title><path d="M39.49,79a59.78,59.78,0,0,0,12.88,1.57,25.59,25.59,0,0,0,8.45-1.21l8.43,6.47c8.55,6.56,16.1,5.22,17.77,4.81L91,92a1,1,0,0,0,1.29-1.23,14.41,14.41,0,0,0-2.38-3.92c1.32-6.15-3.57-11.69-7.91-15.25,3.54-1.48,11.53-5.57,14.62-13.43,3.92-10-7.28-36.16-7.76-37.27a1,1,0,0,0-1.86.72c0,.09,2.91,8.71-.22,20.77C84.08,53,70.86,57.33,67.94,58.17,65.57,55.47,53.61,41.46,51.73,32,49.65,21.55,52.92,9.29,53,9.16a1,1,0,0,0-1.73-.91c-.36.43-8.86,10.68-5.37,26.54a1,1,0,0,0,0,.15,2.37,2.37,0,0,1-.51,2.54c-.74.53-2.17,0-3.83-1.37-5.7-4.77-19.29-12.18-31.43-11.72a1,1,0,0,0-.29,1.94c5.83,2,24.27,12,36.06,22.26.08,2.1.5,9.87,2.58,13.58-8.61.53-21.38-.21-31.87-5.42l-.12,0A40.67,40.67,0,0,1,2,48,1,1,0,0,0,.31,49C4.09,64.32,25.92,76,39.49,79Zm50.8-29.69a21.22,21.22,0,0,0-2.12-4.6,17.52,17.52,0,0,0,.58-1.79c.31-1.2.56-2.35.77-3.48a33.46,33.46,0,0,1,1.94,4.81A31.78,31.78,0,0,1,90.29,49.33Zm1.42-15a39.83,39.83,0,0,1,.15,5.42A26.07,26.07,0,0,0,90,36.27a44.93,44.93,0,0,0,.28-6.21C90.74,31.39,91.23,32.83,91.71,34.32ZM48,50.5c4,3.74,6.91,7.46,7.85,10.77A45.91,45.91,0,0,1,50.8,62C49.2,60.5,48.32,54.88,48,50.5ZM57.3,63A1,1,0,0,0,58,61.84c-.78-4.45-4.89-9.46-10.4-14.33a1,1,0,0,0-.18-.16c-9.78-8.58-23.9-16.73-31.92-20.67,10,1.37,20.1,7.08,24.74,11,3.34,2.79,5.37,2.12,6.28,1.46a4.3,4.3,0,0,0,1.24-4.81,31.22,31.22,0,0,1,2-19.82c-.74,4.7-1.33,11.55-.06,17.93C51.95,43.38,66.25,59.3,66.86,60a1,1,0,0,0,1,.3c.63-.15,14-3.48,19.3-13.3A18.6,18.6,0,0,1,89,52.53a16.07,16.07,0,0,1-11.9,9.23,1,1,0,0,0,.19,2l.19,0a17.9,17.9,0,0,0,13.3-10.28A1,1,0,0,0,91,53a31.18,31.18,0,0,0,2.39-8.32,1,1,0,0,0,.07-.48c.13-1,.23-1.88.29-2.76,1.58,6.26,2.45,12.48,1,16.09-3.17,8-12.39,11.91-14.6,12.73a40.88,40.88,0,0,0-4.09-2.66,1,1,0,0,0-1,1.75c.15.08,15.19,8.48,12.75,17.56a1,1,0,0,0,.18.87c.46.59.83,1.11,1.14,1.55l-1.81-.63a1,1,0,0,0-.63,0c-.08,0-7.61,2.27-16.29-4.39l-7.61-5.84a7.13,7.13,0,0,0,1.53-1.19,1,1,0,1,0-1.47-1.36c-2.43,2.62-10.48,4-23,1.2A69.53,69.53,0,0,1,16.56,66.35c1.34.63,2.8,1.27,4.36,1.88a1,1,0,0,0,.47.18A59.4,59.4,0,0,0,42.54,72.6a46.61,46.61,0,0,0,9.58-1,1,1,0,1,0-.41-2c-11.09,2.32-21.64,0-29.52-3.08-.17-.31-.38-.65-.64-1.06-.92-1.43-2.21-3.47-2.3-5.43C33.86,65.89,51.15,64.62,57.3,63Zm-40-3.7a10.32,10.32,0,0,0,1.78,6c-.72-.32-1.39-.63-2-.94a29.39,29.39,0,0,1-4.77-7.18c1.13.5,2.31,1,3.54,1.39Q16.51,58.93,17.27,59.27ZM9.83,56a17.19,17.19,0,0,0,2.91,6.11c-2.11-1.2-3.48-2.13-3.91-2.43a29.33,29.33,0,0,1-5.41-7.84A41.84,41.84,0,0,0,9.83,56Z"/><circle cx="81.26" cy="83.44" r="1.5"/></svg>